<svg width="29" height="26" viewBox="0 0 29 26" fill="none" xmlns="http://www.w3.org/2000/svg">
<g clip-path="url(#clip0_17_69)">
<path d="M14.4444 15.7513C15.964 15.7513 17.1958 14.5195 17.1958 13C17.1958 11.4805 15.964 10.2487 14.4444 10.2487C12.9249 10.2487 11.6931 11.4805 11.6931 13C11.6931 14.5195 12.9249 15.7513 14.4444 15.7513Z" fill="#139FCD"/>
<path d="M14.4444 19.1905C22.042 19.1905 28.2011 16.419 28.2011 13C28.2011 9.58114 22.042 6.80957 14.4444 6.80957C6.84688 6.80957 0.687836 9.58114 0.687836 13C0.687836 16.419 6.84688 19.1905 14.4444 19.1905Z" stroke="#139FCD" stroke-width="1.5"/>
<path d="M9.08333 16.0953C12.8821 22.675 18.3619 26.6231 21.3228 24.9136C24.2836 23.2041 23.6043 16.4845 19.8056 9.90479C16.0068 3.3251 10.527 -0.623004 7.56614 1.08645C4.60528 2.7959 5.28455 9.51558 9.08333 16.0953Z" stroke="#139FCD" stroke-width="1.5"/>
<path d="M9.08334 9.90474C5.28456 16.4844 4.60529 23.2041 7.56614 24.9136C10.527 26.623 16.0068 22.6749 19.8056 16.0952C23.6043 9.51553 24.2836 2.79586 21.3228 1.0864C18.3619 -0.62305 12.8821 3.32505 9.08334 9.90474Z" stroke="#139FCD" stroke-width="1.5"/>
</g>
<defs>
<clipPath id="clip0_17_69">
<rect width="28.8889" height="26" fill="white"/>
</clipPath>
</defs>
</svg>
